<?xml version="1.0" standalone="no"?>
<!DOCTYPE svg PUBLIC "-//W3C//DTD SVG 20010904//EN"
 "http://www.w3.org/TR/2001/REC-SVG-20010904/DTD/svg10.dtd">
<svg version="1.0" xmlns="http://www.w3.org/2000/svg"
 width="190.000000pt" height="121.000000pt" viewBox="0 0 190.000000 121.000000"
 preserveAspectRatio="xMidYMid meet">
<metadata>
Created by potrace 1.12, written by Peter Selinger 2001-2015
</metadata>
<g transform="translate(0.000000,121.000000) scale(0.100000,-0.100000)"
fill="#000000" stroke="none">
<path d="M1094 1202 c-23 -15 -34 -52 -28 -91 6 -35 2 -44 -27 -81 l-34 -42 1
-117 c1 -64 2 -139 3 -168 0 -28 12 -88 27 -134 25 -80 26 -87 19 -268 -3
-102 -2 -206 2 -231 8 -41 11 -45 35 -42 15 1 29 -2 33 -8 3 -5 30 -10 60 -10
85 0 139 29 80 44 -29 7 -49 40 -42 68 3 11 2 45 -3 76 -5 32 -11 176 -14 322
-4 279 -15 369 -58 453 -14 29 -16 42 -8 57 6 11 15 18 20 15 19 -11 39 40 36
90 -2 44 -6 50 -32 62 -34 14 -54 16 -70 5z"/>
<path d="M1346 1148 c-24 -34 -42 -126 -28 -140 17 -17 15 -38 -3 -38 -8 0
-21 -11 -30 -24 -13 -19 -14 -32 -4 -77 6 -30 18 -64 26 -77 12 -19 12 -30 2
-59 -10 -31 -9 -37 5 -45 12 -7 14 -19 11 -50 -3 -22 -8 -44 -10 -48 -2 -4 3
-41 13 -81 11 -50 16 -105 14 -169 -3 -108 16 -286 32 -299 13 -10 55 -20 106
-27 31 -4 32 -3 13 7 -12 6 -24 21 -27 33 -11 40 -6 160 9 215 41 157 52 229
55 354 0 4 9 7 19 7 11 0 21 5 23 12 5 14 -16 130 -26 147 -5 7 0 11 13 11 29
0 37 37 13 63 -11 12 -31 41 -46 65 -18 29 -33 42 -49 42 -21 0 -22 4 -22 79
0 69 -3 83 -22 100 -29 27 -68 27 -87 -1z"/>
<path d="M1732 1144 c-17 -8 -62 -79 -62 -99 0 -9 -8 -33 -18 -53 -12 -25 -16
-54 -14 -92 2 -30 3 -84 3 -120 -1 -104 19 -227 40 -254 24 -31 26 -148 4
-233 -9 -34 -15 -101 -15 -165 l0 -108 88 0 c80 1 85 2 67 16 -11 8 -30 17
-43 21 -42 10 -49 123 -14 238 11 39 23 102 27 140 4 39 13 102 21 142 8 40
14 100 14 133 0 57 2 61 21 58 18 -2 24 5 34 40 24 78 0 202 -39 202 -9 0 -13
17 -15 57 -1 32 -5 61 -10 66 -10 10 -72 18 -89 11z"/>
<path d="M413 1107 c-23 -16 -35 -35 -43 -67 -21 -83 -22 -98 -9 -121 19 -35
12 -74 -27 -151 -39 -77 -36 -96 17 -118 29 -12 31 -16 25 -52 -4 -24 0 -60
10 -95 17 -58 15 -135 -5 -223 -6 -25 -10 -86 -11 -137 l0 -92 32 -15 c17 -9
45 -16 62 -16 29 1 30 2 12 15 -30 23 -47 124 -31 193 25 106 47 182 55 182 4
0 15 -15 24 -34 12 -26 16 -65 16 -169 0 -100 4 -142 15 -163 10 -20 15 -23
15 -11 0 21 13 22 30 2 7 -8 27 -15 44 -15 l31 0 -27 23 c-36 29 -48 106 -41
258 4 104 2 121 -23 199 -31 99 -41 167 -25 183 6 6 11 17 11 24 0 7 9 22 20
33 26 26 25 33 -8 72 -16 18 -39 51 -52 73 -13 22 -28 43 -33 46 -15 10 2 46
23 52 13 3 20 14 20 29 0 24 -19 83 -33 106 -12 18 -58 13 -94 -11z"/>
<path d="M108 1112 c-46 -6 -60 -42 -44 -114 7 -33 5 -40 -18 -60 -37 -31 -47
-85 -31 -156 7 -31 15 -97 16 -147 2 -67 7 -93 18 -102 13 -9 16 -47 18 -240
1 -226 3 -256 16 -269 3 -3 27 -10 53 -15 39 -7 52 -6 73 8 27 18 31 20 56 22
27 2 16 21 -13 21 -60 0 -64 29 -26 179 25 95 26 110 15 170 -6 36 -13 93 -15
126 -2 33 -9 81 -17 107 -12 44 -12 49 5 61 11 8 16 19 12 25 -4 7 -2 12 3 12
18 0 12 35 -8 47 -11 7 -27 37 -35 67 -9 31 -26 64 -37 75 -22 20 -19 41 5 41
21 0 26 37 13 91 -12 52 -17 56 -59 51z"/>
<path d="M745 1070 c-9 -10 -18 -32 -19 -48 -1 -16 -8 -37 -16 -46 -11 -15
-12 -21 -1 -38 11 -17 10 -23 -7 -42 -32 -35 -35 -61 -12 -112 32 -69 48 -129
40 -145 -4 -8 -10 -34 -14 -59 -5 -35 -2 -52 14 -78 16 -26 20 -51 21 -130 0
-53 -2 -110 -6 -125 -4 -15 -4 -75 0 -134 l7 -106 103 6 c105 7 155 19 155 37
0 5 -8 10 -18 10 -11 0 -28 8 -38 17 -17 16 -19 30 -15 118 6 167 4 197 -22
277 -28 87 -28 194 0 259 16 39 6 79 -20 79 -7 0 -23 16 -37 36 -14 19 -31 41
-37 49 -19 21 -16 32 12 39 17 4 25 14 26 29 5 98 5 99 -23 113 -38 20 -72 17
-93 -6z"/>
</g>
</svg>
